<svg width="74" height="74" viewBox="0 0 74 74" fill="none" xmlns="http://www.w3.org/2000/svg">
<path d="M33.5905 1.96461C34.735 -0.654891 38.4506 -0.654891 39.5951 1.96461L48.6971 22.7979C49.0275 23.5543 49.6313 24.158 50.3877 24.4885L71.221 33.5905C73.8405 34.7349 73.8405 38.4506 71.221 39.5951L50.3877 48.6971C49.6313 49.0275 49.0275 49.6313 48.6971 50.3877L39.5951 71.2209C38.4506 73.8404 34.735 73.8404 33.5905 71.2209L24.4885 50.3877C24.158 49.6313 23.5543 49.0275 22.7979 48.6971L1.96463 39.5951C-0.654876 38.4506 -0.654876 34.7349 1.96463 33.5905L22.7979 24.4885C23.5543 24.158 24.158 23.5543 24.4885 22.7979L33.5905 1.96461Z" fill="#172601"/>
</svg>
